<?xml version="1.0" standalone="yes"?>

<svg version="1.1" viewBox="0.0 0.0 510.0 161.0" fill="none" stroke="none" stroke-linecap="square" stroke-miterlimit="10" xmlns="http://www.w3.org/2000/svg" xmlns:xlink="http://www.w3.org/1999/xlink"><clipPath id="p.0"><path d="m0 0l510.0 0l0 161.0l-510.0 0l0 -161.0z" clip-rule="nonzero"></path></clipPath><g clip-path="url(#p.0)"><path fill="#000000" fill-opacity="0.0" d="m0 0l510.25986 0l0 161.82152l-510.25986 0z" fill-rule="nonzero"></path><path fill="#000000" fill-opacity="0.0" d="m-11.887139 -115.5538l696.28345 0l0 317.95276l-696.28345 0z" fill-rule="nonzero"></path><path fill="#c7c7c7" d="m68.94099 87.93057l0 54.40625l-50.234375 0l0 -42.953125q0 -34.875 8.328125 -50.48438q10.9375 -20.828125 34.625 -31.484375l11.453125 18.203125q-14.3125 6.0 -21.09375 17.84375q-6.765625 11.828129 -7.546875 34.468754l24.46875 0zm80.68749 0l0 54.40625l-50.234367 0l0 -42.953125q0 -34.875 8.328125 -50.48438q10.921875 -20.828125 34.609367 -31.484375l11.453125 18.203125q-14.3125 6.0 -21.078125 17.84375q-6.7656174 11.828129 -7.5468674 34.468754l24.468742 0zm195.90308 -13.53125l0 -54.39063l50.234375 0l0 42.9375q0 34.875004 -8.078125 50.23438q-11.1875 21.078125 -34.875 31.75l-11.4375 -18.484375q14.046875 -5.71875 20.9375 -18.078125q6.90625 -12.359375 7.6875 -33.96875l-24.46875 0zm80.6875 0l0 -54.39063l50.21875 0l0 42.9375q0 34.875004 -8.0625 50.23438q-11.1875 21.078125 -34.875 31.75l-11.453125 -18.484375q14.046875 -5.71875 20.9375 -18.078125q6.90625 -12.359375 7.6875 -33.96875l-24.453125 0z" fill-rule="nonzero"></path></g></svg>

